<svg width="130" height="42" viewBox="0 0 130 42" fill="none" xmlns="http://www.w3.org/2000/svg">
<path d="M4.50673 32.3923C2.32907 32.4912 1.24023 31.7588 1.24023 30.1948C1.24023 29.5019 1.40851 28.9872 1.74506 28.6506C2.0816 28.3141 2.61612 28.126 3.34861 28.0864L4.35825 28.027C4.95216 28.0072 5.39759 27.8192 5.69455 27.4628C6.0113 27.0867 6.16967 26.5819 6.16967 25.9484V13.8029C6.16967 12.9913 6.41714 12.3479 6.91206 11.8727C7.40698 11.3778 8.08008 11.1303 8.93135 11.1303C9.74302 11.1303 10.3963 11.3778 10.8912 11.8727C11.406 12.3479 11.6633 12.9913 11.6633 13.8029V25.8593C11.6633 27.839 11.1387 29.3831 10.0895 30.4918C9.06003 31.5806 7.51587 32.1943 5.45698 32.3329L4.50673 32.3923Z" fill="#009BF6"/>
<path d="M22.4861 32.4516C20.8826 32.4516 19.4671 32.1448 18.2397 31.5311C17.0321 30.8976 16.0917 30.0067 15.4186 28.8585C14.7653 27.7103 14.4387 26.3641 14.4387 24.8199C14.4387 23.2758 14.7653 21.9395 15.4186 20.811C16.0917 19.6628 17.0321 18.7819 18.2397 18.1682C19.4473 17.5544 20.8628 17.2476 22.4861 17.2476C24.1095 17.2476 25.525 17.5544 26.7326 18.1682C27.9402 18.7819 28.8707 19.6628 29.524 20.811C30.1971 21.9395 30.5336 23.2758 30.5336 24.8199C30.5336 26.3641 30.1971 27.7103 29.524 28.8585C28.8707 30.0067 27.9402 30.8976 26.7326 31.5311C25.525 32.1448 24.1095 32.4516 22.4861 32.4516ZM22.4861 28.5022C24.3669 28.5022 25.3072 27.2747 25.3072 24.8199C25.3072 22.3651 24.3669 21.1377 22.4861 21.1377C20.6054 21.1377 19.6651 22.3651 19.6651 24.8199C19.6651 27.2747 20.6054 28.5022 22.4861 28.5022Z" fill="#009BF6"/>
<path d="M35.5702 32.3923C34.8179 32.3923 34.1844 32.1943 33.6697 31.7983C33.1748 31.3826 32.9273 30.7689 32.9273 29.9572V19.742C32.9273 18.9303 33.1748 18.3265 33.6697 17.9306C34.1844 17.5149 34.8179 17.307 35.5702 17.307C36.3225 17.307 36.9461 17.5149 37.441 17.9306C37.9558 18.3265 38.2131 18.9303 38.2131 19.742V29.9572C38.2131 30.7689 37.9558 31.3826 37.441 31.7983C36.9461 32.1943 36.3225 32.3923 35.5702 32.3923ZM35.5702 15.2283C34.6794 15.2283 33.9667 15.0006 33.4322 14.5453C32.9174 14.0702 32.6601 13.4466 32.6601 12.6745C32.6601 11.9024 32.9174 11.2887 33.4322 10.8334C33.9667 10.3781 34.6794 10.1504 35.5702 10.1504C36.4413 10.1504 37.1441 10.3781 37.6786 10.8334C38.2131 11.2887 38.4804 11.9024 38.4804 12.6745C38.4804 13.4466 38.2131 14.0702 37.6786 14.5453C37.1639 15.0006 36.4611 15.2283 35.5702 15.2283Z" fill="#009BF6"/>
<path d="M51.1084 17.2476C52.8505 17.2476 54.1472 17.7722 54.9985 18.8215C55.8497 19.8509 56.2754 21.4248 56.2754 23.543V29.9572C56.2754 30.7095 56.0378 31.3034 55.5627 31.739C55.0875 32.1745 54.4441 32.3923 53.6325 32.3923C52.8208 32.3923 52.1774 32.1745 51.7023 31.739C51.2271 31.3034 50.9896 30.7095 50.9896 29.9572V23.7806C50.9896 22.9095 50.8312 22.276 50.5144 21.8801C50.2175 21.4841 49.7622 21.2862 49.1485 21.2862C48.3566 21.2862 47.7231 21.5435 47.248 22.0583C46.7926 22.5532 46.565 23.2263 46.565 24.0775V29.9572C46.565 30.7095 46.3274 31.3034 45.8523 31.739C45.3771 32.1745 44.7337 32.3923 43.9221 32.3923C43.1104 32.3923 42.467 32.1745 41.9919 31.739C41.5167 31.3034 41.2792 30.7095 41.2792 29.9572V19.6826C41.2792 18.9897 41.5266 18.4255 42.0216 17.99C42.5165 17.5347 43.1599 17.307 43.9518 17.307C44.704 17.307 45.298 17.5149 45.7335 17.9306C46.1888 18.3463 46.4165 18.8907 46.4165 19.5638C46.9312 18.8116 47.5944 18.2374 48.4061 17.8415C49.2178 17.4456 50.1185 17.2476 51.1084 17.2476Z" fill="#009BF6"/>
<path d="M77.2582 32.4813C74.2293 32.4813 71.9229 31.7093 70.3392 30.1651C68.7752 28.6209 67.9932 26.3641 67.9932 23.3945V13.8029C67.9932 12.9913 68.2308 12.3479 68.7059 11.8727C69.2008 11.3778 69.8541 11.1303 70.6658 11.1303C71.4775 11.1303 72.1209 11.3778 72.596 11.8727C73.0909 12.3479 73.3384 12.9913 73.3384 13.8029V23.6024C73.3384 25.107 73.6749 26.2651 74.348 27.0768C75.0211 27.8885 75.9912 28.2943 77.2582 28.2943C78.5252 28.2943 79.4952 27.8885 80.1683 27.0768C80.8414 26.2651 81.178 25.107 81.178 23.6024V13.8029C81.178 12.9913 81.4156 12.3479 81.8907 11.8727C82.3856 11.3778 83.0389 11.1303 83.8506 11.1303C84.6623 11.1303 85.3156 11.3778 85.8105 11.8727C86.3054 12.3479 86.5529 12.9913 86.5529 13.8029V23.3945C86.5529 26.3443 85.7511 28.6011 84.1475 30.1651C82.5638 31.7093 80.2673 32.4813 77.2582 32.4813Z" fill="#009BF6"/>
<path d="M95.6431 32.4516C94.3167 32.4516 93.1982 32.3527 92.2876 32.1547C91.3769 31.9567 90.5751 31.64 89.8822 31.2044C89.6051 31.0659 89.3873 30.8283 89.2289 30.4918C89.0705 30.1552 88.9914 29.7791 88.9914 29.3633C88.9914 28.8288 89.1299 28.3933 89.4071 28.0567C89.7041 27.7004 90.0703 27.5222 90.5058 27.5222C90.8028 27.5222 91.0799 27.5618 91.3373 27.641C91.5947 27.7004 91.9114 27.8093 92.2876 27.9676C92.9211 28.1854 93.4754 28.3537 93.9505 28.4725C94.4454 28.5912 95.069 28.6506 95.8213 28.6506C96.3558 28.6506 96.7716 28.5813 97.0685 28.4428C97.3853 28.2844 97.5436 28.0666 97.5436 27.7895C97.5436 27.5717 97.4645 27.4034 97.3061 27.2846C97.1675 27.1659 96.8903 27.057 96.4746 26.958C96.0589 26.8392 95.3561 26.6808 94.3662 26.4829C92.6043 26.1463 91.3274 25.6415 90.5355 24.9684C89.7634 24.2755 89.3774 23.3055 89.3774 22.0583C89.3774 21.1476 89.6546 20.326 90.2089 19.5935C90.783 18.861 91.565 18.2869 92.5548 17.8712C93.5447 17.4555 94.6533 17.2476 95.8807 17.2476C96.7716 17.2476 97.6327 17.3565 98.4642 17.5742C99.3155 17.792 100.068 18.0989 100.721 18.4948C101.335 18.8511 101.642 19.4253 101.642 20.2171C101.642 20.7715 101.493 21.2367 101.196 21.6128C100.899 21.989 100.533 22.177 100.097 22.177C99.5827 22.177 98.969 22.0088 98.2563 21.6722C97.7812 21.4544 97.3556 21.2961 96.9794 21.1971C96.6231 21.0783 96.1974 21.0189 95.7025 21.0189C95.2076 21.0189 94.8216 21.0981 94.5444 21.2565C94.2673 21.3951 94.1287 21.6029 94.1287 21.8801C94.1287 22.1968 94.3167 22.4443 94.6929 22.6225C95.0888 22.8006 95.8609 22.9986 97.0091 23.2164C98.9294 23.5529 100.286 24.0676 101.077 24.7605C101.869 25.4336 102.265 26.4136 102.265 27.7004C102.265 29.1456 101.661 30.3037 100.454 31.1747C99.266 32.026 97.6624 32.4516 95.6431 32.4516Z" fill="#009BF6"/>
<path fill-rule="evenodd" clip-rule="evenodd" d="M110.113 24.792L107.84 32.2158L115.226 29.9316L110.113 24.792Z" fill="#009BF6"/>
<path fill-rule="evenodd" clip-rule="evenodd" d="M116.054 11.2412C111.975 11.2412 108.668 14.565 108.668 18.6651V24.233C108.668 28.333 111.975 31.6568 116.054 31.6568H121.594C125.674 31.6568 128.981 28.333 128.981 24.233V18.6651C128.981 14.565 125.674 11.2412 121.594 11.2412H116.054ZM113.183 21.6204C112.716 21.9332 112.59 22.5669 112.901 23.036C114.434 25.3475 116.433 26.5529 118.824 26.5529C121.216 26.5529 123.214 25.3475 124.748 23.036C125.059 22.5669 124.933 21.9332 124.466 21.6204C123.999 21.3077 123.369 21.4345 123.058 21.9036C121.882 23.6752 120.496 24.5113 118.824 24.5113C117.153 24.5113 115.766 23.6752 114.591 21.9036C114.28 21.4345 113.65 21.3077 113.183 21.6204Z" fill="#009BF6"/>
</svg>
