<svg width="24" height="25" viewBox="0 0 24 25" fill="none" xmlns="http://www.w3.org/2000/svg">
<path fill-rule="evenodd" clip-rule="evenodd" d="M4.11262 15.792L1.83984 23.2158L9.22636 20.9316L4.11262 15.792Z" fill="#009BF6"/>
<path fill-rule="evenodd" clip-rule="evenodd" d="M10.0545 2.24121C5.97502 2.24121 2.66797 5.56498 2.66797 9.66507V15.233C2.66797 19.333 5.97502 22.6568 10.0545 22.6568H15.5944C19.6738 22.6568 22.9809 19.333 22.9809 15.233V9.66507C22.9809 5.56498 19.6738 2.24121 15.5944 2.24121H10.0545ZM7.18285 12.6204C6.71613 12.9332 6.59001 13.5669 6.90116 14.036C8.43441 16.3475 10.4333 17.5529 12.8245 17.5529C15.2156 17.5529 17.2145 16.3475 18.7478 14.036C19.0589 13.5669 18.9328 12.9332 18.4661 12.6204C17.9993 12.3077 17.3688 12.4345 17.0576 12.9036C15.8825 14.6752 14.4959 15.5113 12.8245 15.5113C11.153 15.5113 9.76643 14.6752 8.59129 12.9036C8.28015 12.4345 7.64957 12.3077 7.18285 12.6204Z" fill="#009BF6"/>
</svg>
