<svg width="18" height="18" viewBox="0 0 18 18" fill="none" xmlns="http://www.w3.org/2000/svg">
<path d="M16.8687 2.89375C17.3554 2.40705 17.3555 1.61795 16.8687 1.13125C16.382 0.644549 15.593 0.644549 15.1062 1.13125L9 7.2375L2.89375 1.13125C2.40705 0.64455 1.61795 0.644549 1.13125 1.13125C0.644549 1.61795 0.644549 2.40705 1.13125 2.89375L7.2375 9L1.13125 15.1062C0.64455 15.5929 0.644549 16.382 1.13125 16.8687C1.61795 17.3555 2.40705 17.3555 2.89375 16.8687L9 10.7625L15.1062 16.8687C15.5929 17.3554 16.382 17.3555 16.8687 16.8687C17.3555 16.382 17.3555 15.593 16.8687 15.1062L10.7625 9L16.8687 2.89375Z" fill="#56809F"/>
</svg>
