<svg width="19" height="19" viewBox="0 0 19 19" fill="none" xmlns="http://www.w3.org/2000/svg">
<path d="M8.08541 13.0358L6.6712 11.6216L9.14607 9.14668C9.73186 8.56089 9.73186 7.61114 9.14607 7.02536C8.56028 6.43957 7.61054 6.43957 7.02475 7.02536L3.48921 10.5609C2.12238 11.9277 2.12238 14.1438 3.48921 15.5106C4.85605 16.8775 7.07213 16.8775 8.43896 15.5106L15.51 8.43957C16.8769 7.07274 16.8769 4.85666 15.51 3.48982L15.1565 3.13627C13.9849 1.9647 12.0854 1.9647 10.9138 3.13627L9.49962 1.72206C11.4522 -0.230564 14.6181 -0.230564 16.5707 1.72206L16.9242 2.07561C19.0721 4.22349 19.0721 7.7059 16.9242 9.85379L9.85318 16.9249C7.70529 19.0727 4.22288 19.0727 2.075 16.9249C-0.0728823 14.777 -0.072883 11.2946 2.075 9.14668L5.61054 5.61114C6.97737 4.24431 9.19345 4.24431 10.5603 5.61114C11.9271 6.97798 11.9271 9.19406 10.5603 10.5609L8.08541 13.0358Z" fill="#009BF6"/>
</svg>
