<svg width="16" height="16" viewBox="0 0 16 16" fill="none" xmlns="http://www.w3.org/2000/svg">
<path d="M16 8C16 12.4183 12.4183 16 8 16C3.58172 16 0 12.4183 0 8C0 3.58172 3.58172 0 8 0C12.4183 0 16 3.58172 16 8Z" fill="#2ED47A"/>
<path d="M11.9428 5.20555C12.1574 4.96008 12.5361 4.93023 12.7886 5.13888C13.0411 5.34753 13.0718 5.71567 12.8572 5.96114L7.75716 11.7945C7.53918 12.0438 7.15294 12.07 6.90138 11.8526L4.20139 9.51932C3.95372 9.30529 3.93141 8.93658 4.15156 8.69579C4.37171 8.455 4.75095 8.43331 4.99862 8.64735L7.24013 10.5844L11.9428 5.20555Z" fill="white" stroke="white" stroke-width="0.5"/>
</svg>
