<svg width="756" height="16" viewBox="0 0 756 16" fill="none" xmlns="http://www.w3.org/2000/svg">
<circle cx="748" cy="8" r="8" fill="#009BF6"/>
<path fill-rule="evenodd" clip-rule="evenodd" d="M745 8H744C744 10.2091 745.791 12 748 12C750.209 12 752 10.2091 752 8C752 5.79086 750.209 4 748 4C747.127 4 746.3 4.28166 745.624 4.78147L745.18 4.47084C744.844 4.23517 744.383 4.48352 744.394 4.89424L744.441 6.61334C744.451 6.948 744.78 7.17919 745.098 7.07439L746.735 6.5348C747.126 6.40596 747.202 5.88642 746.865 5.65036L746.505 5.39822C746.951 5.14132 747.464 5 748 5C749.657 5 751 6.34315 751 8C751 9.65685 749.657 11 748 11C746.343 11 745 9.65685 745 8Z" fill="white"/>
</svg>
