<svg width="16" height="16" viewBox="0 0 16 16" fill="none" xmlns="http://www.w3.org/2000/svg">
    <circle cx="8" cy="8" r="8" fill="#009BF6"/>
    <path fill-rule="evenodd" clip-rule="evenodd" d="M5 8H4C4 10.2091 5.79086 12 8 12C10.2091 12 12 10.2091 12 8C12 5.79086 10.2091 4 8 4C7.12718 4 6.30022 4.28166 5.62412 4.78147L5.1805 4.47084C4.84393 4.23517 4.38254 4.48352 4.3939 4.89424L4.44144 6.61334C4.4507 6.948 4.77982 7.17919 5.09778 7.07439L6.73476 6.5348C7.12564 6.40596 7.20215 5.88642 6.86502 5.65036L6.50493 5.39822C6.95135 5.14132 7.46388 5 8 5C9.65685 5 11 6.34315 11 8C11 9.65685 9.65685 11 8 11C6.34315 11 5 9.65685 5 8Z" fill="white"/>
</svg>
