<svg width="20" height="20" viewBox="0 0 20 20" fill="none" xmlns="http://www.w3.org/2000/svg">
<path fill-rule="evenodd" clip-rule="evenodd" d="M4.33398 1.66699C3.7817 1.66699 3.33398 2.11471 3.33398 2.66699V17.3337C3.33398 17.8859 3.7817 18.3337 4.33398 18.3337H13.6673C15.3242 18.3337 16.6673 16.9905 16.6673 15.3337V4.66699C16.6673 3.01014 15.3242 1.66699 13.6673 1.66699H4.33398ZM10.0981 11.425C9.72714 11.7959 9.16046 11.8879 8.69127 11.6533C8.22207 11.4187 7.6554 11.5106 7.28446 11.8816L6.02053 13.1455C5.8037 13.3623 5.89086 13.7315 6.18177 13.8285C7.96051 14.4214 9.92158 13.9585 11.2474 12.6327L12.8356 11.0445C14.1142 9.76584 14.4312 7.81249 13.6225 6.19514C13.5157 5.98141 13.2308 5.93519 13.0619 6.10415L11.6694 7.49659C11.2985 7.86753 11.2065 8.4342 11.4411 8.9034C11.6757 9.37259 11.5838 9.93927 11.2128 10.3102L10.0981 11.425Z" fill="#56809F"/>
</svg>
