<svg width="16" height="16" viewBox="0 0 16 16" fill="none" xmlns="http://www.w3.org/2000/svg">
<path fill-rule="evenodd" clip-rule="evenodd" d="M3.33268 2.66699C2.22811 2.66699 1.33268 3.56242 1.33268 4.66699V12.667C1.33268 13.7716 2.22811 14.667 3.33268 14.667H12.666C13.7706 14.667 14.666 13.7716 14.666 12.667V4.66699C14.666 3.56242 13.7706 2.66699 12.666 2.66699H3.33268ZM13.3327 6.00033H2.66602V13.3337H13.3327V6.00033Z" fill="#56809F"/>
<rect x="3.66797" y="7.33301" width="2" height="2" rx="0.5" fill="#56809F"/>
<rect x="3.66797" y="10" width="2" height="2" rx="0.5" fill="#56809F"/>
<rect x="7" y="7.33301" width="2" height="2" rx="0.5" fill="#56809F"/>
<rect x="7" y="10" width="2" height="2" rx="0.5" fill="#56809F"/>
<rect x="10.334" y="7.33301" width="2" height="2" rx="0.5" fill="#56809F"/>
<path d="M3.33398 2.66634C3.33398 1.92996 3.93094 1.33301 4.66732 1.33301C5.4037 1.33301 6.00065 1.92996 6.00065 2.66634V3.33301H3.33398V2.66634Z" fill="#56809F"/>
<path d="M10 2.66634C10 1.92996 10.597 1.33301 11.3333 1.33301C12.0697 1.33301 12.6667 1.92996 12.6667 2.66634V3.33301H10V2.66634Z" fill="#56809F"/>
</svg>
