<svg width="20" height="20" viewBox="0 0 20 20" fill="none" xmlns="http://www.w3.org/2000/svg">
<path fill-rule="evenodd" clip-rule="evenodd" d="M6.66732 2.5H5.33398C4.22941 2.5 3.33398 3.39543 3.33398 4.5V17.1667C3.33398 18.2712 4.22941 19.1667 5.33398 19.1667H14.6673C15.7719 19.1667 16.6673 18.2712 16.6673 17.1667V4.5C16.6673 3.39543 15.7719 2.5 14.6673 2.5H13.334V2.91667C13.334 3.60702 12.7743 4.16667 12.084 4.16667H7.91732C7.22696 4.16667 6.66732 3.60702 6.66732 2.91667V2.5ZM9.06185 13.1247C8.8622 13.1247 8.66254 13.0448 8.50282 12.8851L6.9056 11.2879C6.58615 10.9684 6.58615 10.4893 6.9056 10.1698C7.22504 9.85037 7.74414 9.85037 8.02365 10.1698L9.06185 11.208L11.6973 8.57259C12.0167 8.25315 12.4959 8.25315 12.8153 8.57259C13.1348 8.89204 13.1348 9.3712 12.8153 9.69065L9.62088 12.8851C9.46115 13.0448 9.2615 13.1247 9.06185 13.1247Z" fill="#56809F"/>
<path fill-rule="evenodd" clip-rule="evenodd" d="M10.8333 1.66634L12 1.66634C12.2761 1.66634 12.5 1.8902 12.5 2.16634V2.83301C12.5 3.10915 12.2761 3.33301 12 3.33301H8C7.72386 3.33301 7.5 3.10915 7.5 2.83301V2.16634C7.5 1.8902 7.72386 1.66634 8 1.66634L9.16667 1.66634C9.16667 1.2061 9.53976 0.833008 10 0.833008C10.4602 0.833008 10.8333 1.2061 10.8333 1.66634Z" fill="#56809F"/>
</svg>
