<svg width="16" height="20" viewBox="0 0 16 20" fill="none" xmlns="http://www.w3.org/2000/svg">
<path fillRule="evenodd" clipRule="evenodd" d="M1.85714 0H9.73641C10.0911 0 10.4343 0.125684 10.7051 0.35474L15.4687 4.38394C15.8057 4.66895 16 5.08788 16 5.5292V18.0833C16 19.8739 15.9796 20 14.1429 20H1.85714C0.0204479 20 0 19.8739 0 18.0833V1.91667C0 0.126125 0.0204479 0 1.85714 0ZM2 10C2 9.44771 2.44772 9 3 9H10C10.5523 9 11 9.44771 11 10C11 10.5523 10.5523 11 10 11H3C2.44772 11 2 10.5523 2 10ZM3 13C2.44772 13 2 13.4477 2 14C2 14.5523 2.44772 15 3 15H6C6.55228 15 7 14.5523 7 14C7 13.4477 6.55228 13 6 13H3Z" fill="#009BF6"/>
</svg>
