<svg width="68" height="16" viewBox="0 0 68 16" fill="none" xmlns="http://www.w3.org/2000/svg">
<circle cx="60" cy="8" r="8" fill="#009BF6"/>
<path fill-rule="evenodd" clip-rule="evenodd" d="M57 8H56C56 10.2091 57.7909 12 60 12C62.2091 12 64 10.2091 64 8C64 5.79086 62.2091 4 60 4C59.1272 4 58.3002 4.28166 57.6241 4.78147L57.1805 4.47084C56.8439 4.23517 56.3825 4.48352 56.3939 4.89424L56.4414 6.61334C56.4507 6.948 56.7798 7.17919 57.0978 7.07439L58.7348 6.5348C59.1256 6.40596 59.2022 5.88642 58.865 5.65036L58.5049 5.39822C58.9514 5.14132 59.4639 5 60 5C61.6569 5 63 6.34315 63 8C63 9.65685 61.6569 11 60 11C58.3431 11 57 9.65685 57 8Z" fill="white"/>
</svg>
