<svg width="20" height="20" viewBox="0 0 20 20" fill="none" xmlns="http://www.w3.org/2000/svg">
<path fill-rule="evenodd" clip-rule="evenodd" d="M4.5 5C3.39543 5 2.5 5.89543 2.5 7V13.8333C2.5 14.9379 3.39543 15.8333 4.5 15.8333H15.5C16.6046 15.8333 17.5 14.9379 17.5 13.8333V7C17.5 5.89543 16.6046 5 15.5 5H4.5ZM15.9669 6.787C15.8033 6.48308 15.4242 6.36937 15.1203 6.53301L9.99998 9.29013L4.87962 6.53301C4.5757 6.36937 4.19666 6.48308 4.03301 6.787C3.86937 7.09092 3.98308 7.46995 4.287 7.6336L9.70366 10.5503C9.88865 10.6499 10.1113 10.6499 10.2963 10.5503L15.713 7.6336C16.0169 7.46995 16.1306 7.09092 15.9669 6.787Z" fill="#56809F"/>
</svg>
