<svg width="24" height="24" viewBox="0 0 24 24" fill="none" xmlns="http://www.w3.org/2000/svg">
<path fill-rule="evenodd" clip-rule="evenodd" d="M12 6C9.72279 6 7.80975 7.71226 7.55827 9.97553L7 15H5.5C4.67157 15 4 15.6716 4 16.5C4 17.3284 4.67157 18 5.5 18H18.5C19.3284 18 20 17.3284 20 16.5C20 15.6716 19.3284 15 18.5 15H17L16.4417 9.97554C16.1903 7.71226 14.2772 6 12 6Z" fill="#56809F"/>
<path d="M13.4135 19.5C13.2061 20.0806 12.6488 20.5 12 20.5C11.3443 20.5 10.7907 20.0813 10.5854 19.5H13.4135Z" fill="#56809F" stroke="#56809F"/>
<circle cx="17" cy="6" r="4.5" fill="#FF3737" stroke="white"/>
</svg>
