<svg width="20" height="20" viewBox="0 0 20 20" fill="none" xmlns="http://www.w3.org/2000/svg">
<path d="M13.0824 11.8328C12.9763 11.7264 12.8322 11.6667 12.682 11.6667H12.2583L12.025 11.4417C12.8417 10.4917 13.3333 9.25833 13.3333 7.91667C13.3333 4.925 10.9083 2.5 7.91667 2.5C4.925 2.5 2.5 4.925 2.5 7.91667C2.5 10.9083 4.925 13.3333 7.91667 13.3333C9.25833 13.3333 10.4917 12.8417 11.4417 12.025L11.6667 12.2583V12.682C11.6667 12.8322 11.7264 12.9763 11.8328 13.0824L15.2119 16.4548C15.5552 16.7974 16.1112 16.7971 16.4542 16.4542V16.4542C16.7971 16.1112 16.7974 15.5552 16.4548 15.2119L13.0824 11.8328ZM7.91667 11.6667C5.84167 11.6667 4.16667 9.99167 4.16667 7.91667C4.16667 5.84167 5.84167 4.16667 7.91667 4.16667C9.99167 4.16667 11.6667 5.84167 11.6667 7.91667C11.6667 9.99167 9.99167 11.6667 7.91667 11.6667Z" fill="#56809F"/>
</svg>
